#!OML:ASF F:\VICON\USERDATA\INSTALL\SteveWalk\SteveWalk.ASF
:FULLY-SPECIFIED
:DEGREES
370
root 0.647409 15.8648 35.0104 16.6687 6.1009 -1.57554
lowerback -15.7006 -1.4718 3.11916
upperback -5.64719 -2.49827 2.6518
thorax 2.78538 -1.23845 0.579302
lowerneck -4.45552 -0.382177 -1.3608
upperneck 8.04318 -0.304799 -1.22011
head 3.371 -0.241005 -0.173443
rclavicle 6.33626e-016 3.02153e-014
rhumerus -98.3498 -36.1657 13.4758
rradius 10.9211
rwrist 62.7406
rhand -15.8143 -34.8307
rfingers 7.12502
rthumb 10.3793 -424.555
lclavicle 6.33626e-016 3.02153e-014
lhumerus -23.736 -3.76616 84.4119
lradius 53.0831
lwrist 15.2561
lhand -24.5353 -17.7055
lfingers 7.12502
lthumb 1.96036 12.2652
rfemur -46.0733 -1.48863 26.0373
rtibia 37.8807
rfoot -9.59934 3.2877
rtoes -1.3341
lfemur -11.4254 -0.275158 -16.3851
ltibia 55.0926
lfoot 24.9783 -14.6837
ltoes -14.0068
371
root 0.64947 15.8901 35.2249 16.5113 6.56581 -2.2253
lowerback -15.4213 -1.39789 3.81873
upperback -5.73405 -2.49063 2.83898
thorax 2.52102 -1.24239 0.393928
lowerneck -4.38027 -0.485845 -1.39958
upperneck 8.12162 -0.44998 -1.1169
head 3.3841 -0.310501 -0.139271
rclavicle 6.4605e-015 7.15625e-015
rhumerus -98.2003 -36.921 13.0151
rradius 10.875
rwrist 62.7193
rhand -16.2289 -33.9842
rfingers 7.12502
rthumb 9.9793 -423.728
lclavicle 6.4605e-015 7.15625e-015
lhumerus -24.5699 -3.64655 84.9005
lradius 52.3283
lwrist 14.8723
lhand -24.3411 -17.8446
lfingers 7.12502
lthumb 2.14789 12.1244
rfemur -45.1224 -1.88183 26.9863
rtibia 38.109
rfoot -10.5275 3.23863
rtoes -1.53898
lfemur -13.0372 -0.325849 -15.4544
ltibia 57.7397
lfoot 25.394 -13.7208
ltoes -16.8252
372
root 0.652733 15.9123 35.4443 16.4977 6.86422 -2.4352
lowerback -15.4003 -1.27137 4.10782
upperback -5.78634 -2.36065 2.84462
thorax 2.44415 -1.1813 0.261408
lowerneck -4.26619 -0.65697 -1.44865
upperneck 8.14552 -0.68977 -0.974641
head 3.37147 -0.425109 -0.0942036
rclavicle -1.76918e-014 7.95139e-015
rhumerus -96.8276 -37.9868 10.3187
rradius 10.9877
rwrist 60.7745
rhand -15.9397 -34.8666
rfingers 7.12502
rthumb 10.2583 -424.596
lclavicle -1.76918e-014 7.95139e-015
lhumerus -25.3079 -3.76256 85.463
lradius 51.4453
lwrist 14.6111
lhand -24.4539 -17.6569
lfingers 7.12502
lthumb 2.03904 12.3131
rfemur -44.1938 -2.44182 27.549
rtibia 38.275
rfoot -11.6516 3.06374
rtoes -5.45343
lfemur -14.7483 -0.359758 -15.093
ltibia 60.2508
lfoot 24.7142 -12.8857
ltoes -16.2873
373
root 0.645641 15.944 35.6589 16.6066 6.86518 -2.00012
lowerback -15.5486 -1.24246 3.44834
upperback -5.6912 -2.2366 2.77094
thorax 2.65154 -1.11064 0.569788
lowerneck -4.66712 -0.746693 -1.44468
upperneck 8.30023 -0.803114 -0.94436
head 3.5033 -0.482139 -0.0922608
rclavicle 1.09829e-014 -8.74653e-015
rhumerus -97.2078 -39.3347 10.7455
rradius 10.8883
rwrist 61.6851
rhand -15.4055 -35.0722
rfingers 7.12502
rthumb 10.7737 -424.776
lclavicle 1.09829e-014 -8.74653e-015
lhumerus -25.767 -3.63106 86.0048
lradius 50.4213
lwrist 14.0089
lhand -24.4284 -17.305
lfingers 7.12502
lthumb 2.06366 12.6647
rfemur -43.3453 -2.74125 27.2934
rtibia 38.3592
rfoot -12.5871 2.72526
rtoes -8.877
lfemur -16.5547 -0.329226 -15.5224
ltibia 62.555
lfoot 23.2707 -11.7686
ltoes -14.1004
